<mxfile host="app.diagrams.net" modified="2023-10-24T15:17:02.936Z" agent="Mozilla/5.0 (Windows NT 10.0; Win64; x64) AppleWebKit/537.36 (KHTML, like Gecko) Chrome/116.0.0.0 Safari/537.36 OPR/102.0.0.0" version="22.0.6" etag="JMWGkDNPeZw0Dk1prImR" type="github">
  <diagram name="Page-1" id="faL7WWvmab_ah_5uFtHt">
    <mxGraphModel>
      <root>
        <mxCell id="0" />
        <mxCell id="1" parent="0" />
      </root>
    </mxGraphModel>
  </diagram>
</mxfile>
